Coordinates
version=1
nRows=12
nColumns=24
inDegrees=yes

Units are S.I. units (second, meters, Newtons, ...)
Angles are in degrees.

endheader
time	pelvis_tilt	pelvis_list	pelvis_rotation	pelvis_tx	pelvis_ty	pelvis_tz	hip_flexion_r	hip_adduction_r	hip_rotation_r	knee_angle_r	ankle_angle_r	subtalar_angle_r	mtp_angle_r	hip_flexion_l	hip_adduction_l	hip_rotation_l	knee_angle_l	ankle_angle_l	subtalar_angle_l	mtp_angle_l	lumbar_extension	lumbar_bending	lumbar_rotation
      1.39600000	      1.70892988	      6.90673091	     -4.95882902	      0.24610304	      1.01972746	      0.31565665	     13.52555473	     -8.23738393	      0.55255748	    -62.89825889	      4.60046051	    -13.74805974	      0.63850921	      4.32866256	     11.98376502	     -0.43644394	     -7.84509336	     -0.05005279	    -18.17041056	      5.97674125	     -5.38934123	     -8.79449275	      6.50889573
      1.40016667	      1.69798865	      6.78347484	     -4.80637288	      0.25107357	      1.02040771	      0.31555876	     13.97770435	     -8.04883814	      0.48501298	    -62.28363624	      4.85663953	    -13.64127795	      0.62576859	      3.81125847	     11.88821196	     -0.21471564	     -7.48385827	      0.01434854	    -18.13776397	      5.92498247	     -5.43298259	     -8.66412691	      6.23056919
      1.40433333	      1.67878964	      6.66012128	     -4.64399777	      0.25603439	      1.02103456	      0.31545763	     14.42628002	     -7.86327437	      0.40307686	    -61.62809621	      5.10393619	    -13.52652667	      0.61544635	      3.30480249	     11.78841390	      0.01415590	     -7.12579912	      0.07761465	    -18.10637687	      5.86934645	     -5.46845574	     -8.53484903	      5.92692387
      1.40850000	      1.67576581	      6.54159177	     -4.47825001	      0.26097114	      1.02164084	      0.31536641	     14.84737086	     -7.68677073	      0.31251883	    -60.93622681	      5.35135230	    -13.40832551	      0.60720242	      2.78229716	     11.69043440	      0.24287166	     -6.76337727	      0.12787623	    -18.06710769	      5.80710761	     -5.53071999	     -8.41443029	      5.61764465
      1.41266667	      1.66912266	      6.42560886	     -4.30396226	      0.26590717	      1.02221311	      0.31526463	     15.25825545	     -7.51953348	      0.20396294	    -60.20133138	      5.57384623	    -13.27388008	      0.60256337	      2.26665045	     11.59216946	      0.47374621	     -6.40668921	      0.19860821	    -18.02669525	      5.74844951	     -5.58171284	     -8.29108604	      5.31204453
      1.41683333	      1.65260308	      6.30762489	     -4.12477812	      0.27084202	      1.02272957	      0.31516374	     15.66679031	     -7.35342107	      0.08450324	    -59.42925338	      5.77976137	    -13.14818732	      0.60074672	      1.76478435	     11.48673770	      0.69970432	     -6.05481614	      0.27098899	    -17.98365292	      5.69235225	     -5.61828071	     -8.16311684	      5.00542362
      1.42100000	      1.64017010	      6.19777668	     -3.94448978	      0.27575102	      1.02320897	      0.31506980	     16.06381217	     -7.20007523	     -0.04129039	    -58.62650818	      5.97922317	    -13.01810205	      0.60159145	      1.26439925	     11.38590475	      0.92030130	     -5.70723534	      0.34116239	    -17.93289759	      5.63890184	     -5.66303957	     -8.04634576	      4.69984591
      1.42516667	      1.62540517	      6.08436265	     -3.75616859	      0.28065845	      1.02365032	      0.31497303	     16.44689562	     -7.04577587	     -0.17784540	    -57.78455173	      6.16088079	    -12.90015284	      0.60383813	      0.77062668	     11.27724074	      1.14731109	     -5.36747374	      0.40980115	    -17.88376581	      5.58665492	     -5.70856150	     -7.92636817	      4.38555527
      1.42933333	      1.59934314	      5.98585835	     -3.56855793	      0.28554840	      1.02402698	      0.31488929	     16.83811318	     -6.90977024	     -0.31578812	    -56.92112153	      6.34865807	    -12.79447436	      0.60825178	      0.29207616	     11.18003974	      1.37301528	     -5.02375811	      0.44711593	    -17.84242940	      5.51646818	     -5.74403351	     -7.82687926	      4.03834340
      1.43350000	      1.57065765	      5.87669783	     -3.37889065	      0.29042515	      1.02436965	      0.31480544	     17.21644920	     -6.76472797	     -0.46136842	    -56.01626426	      6.48880835	    -12.68501064	      0.61315049	     -0.17430597	     11.06736176	      1.59589732	     -4.70136640	      0.53664726	    -17.78426871	      5.46182231	     -5.77985717	     -7.71239223	      3.74574882
      1.43766667	      1.55426388	      5.78118296	     -3.18980947	      0.29530657	      1.02467042	      0.31471907	     17.57358837	     -6.64519367	     -0.62323083	    -55.09015932	      6.62360130	    -12.57638580	      0.61860974	     -0.64967840	     10.96725435	      1.79927070	     -4.38121882	      0.62177951	    -17.72704212	      5.41403417	     -5.81495273	     -7.60704098	      3.44735876
      1.44183333	      1.53420038	      5.68544528	     -3.00235448	      0.30016753	      1.02493024	      0.31464483	     17.92398914	     -6.52425353	     -0.78084946	    -54.13420138	      6.74340884	    -12.48856195	      0.62518541	     -1.11754124	     10.86280670	      2.01404001	     -4.06333205	      0.69307951	    -17.67268284	      5.36247256	     -5.85881622	     -7.50740548	      3.12715682
